<?xml version="1.0" encoding="UTF-8"?>
<svg xmlns="http://www.w3.org/2000/svg" xmlns:xlink="http://www.w3.org/1999/xlink" width="156px" height="153px" viewBox="0 0 155 153" version="1.1">
<g id="surface1">
<path style=" stroke:none;fill-rule:nonzero;fill:rgb(41.960785%,44.705883%,50.196081%);fill-opacity:1;" d="M 21.59375 10.613281 C 18.054688 12.390625 14.101562 15.949219 12.058594 19.097656 L 8.382812 24.707031 L 7.972656 75.886719 C 7.566406 125.972656 7.703125 127.203125 10.5625 133.226562 C 12.332031 136.917969 15.601562 140.75 19.007812 142.941406 L 24.589844 146.636719 L 129.738281 146.636719 L 135.59375 142.804688 C 139.40625 140.203125 142.269531 136.917969 144.039062 132.949219 C 146.625 127.203125 146.761719 123.917969 146.355469 75.75 L 145.945312 24.707031 L 142.269531 19.097656 C 140.089844 15.8125 136.273438 12.390625 132.734375 10.613281 C 126.878906 7.875 124.835938 7.738281 77.027344 7.738281 C 29.085938 7.738281 27.316406 7.875 21.59375 10.613281 Z M 56.734375 33.054688 L 56.734375 51.527344 L 15.875 51.527344 L 15.875 39.214844 C 15.875 18.277344 19.824219 14.71875 42.839844 14.582031 L 56.734375 14.582031 Z M 130.144531 17.042969 C 139.269531 21.972656 139.816406 24.707031 139.816406 63.433594 L 139.816406 98.054688 L 104.539062 98.054688 L 104.132812 78.078125 L 103.722656 57.960938 L 99.910156 55.085938 C 96.640625 52.625 93.78125 52.214844 79.75 51.804688 L 63.542969 51.253906 L 63.542969 14.582031 L 94.597656 14.582031 C 121.972656 14.582031 126.058594 14.855469 130.144531 17.042969 Z M 94.054688 59.738281 L 97.59375 61.109375 L 97.59375 98.054688 L 15.875 98.054688 L 15.875 58.371094 L 53.191406 58.371094 C 74.167969 58.371094 92.144531 58.917969 94.054688 59.738281 Z M 139.816406 115.433594 C 139.816406 128.160156 137.226562 134.320312 130.28125 138.015625 C 125.921875 140.203125 121.429688 140.476562 77.574219 140.476562 C 27.996094 140.476562 24.726562 140.203125 18.871094 134.730469 C 16.144531 132.128906 15.875 130.488281 15.875 118.308594 L 15.875 104.898438 L 139.816406 104.898438 Z M 139.816406 115.433594 "/>
</g>
</svg>
