<svg xmlns="http://www.w3.org/2000/svg" xmlns:xlink="http://www.w3.org/1999/xlink" version="1.1" viewBox="1.44 15.18 797.23 124.73">
<g id="surface1">
<path style=" stroke:none;fill-rule:nonzero;fill:rgb(41.960785%,44.705883%,50.196081%);fill-opacity:1;" d="M 356.417969 16.652344 C 356.417969 17.535156 357.496094 18.617188 358.769531 19.105469 C 360.140625 19.597656 361.714844 20.871094 362.203125 21.953125 C 363.773438 24.699219 363.671875 126.09375 362.203125 129.335938 C 361.613281 130.707031 360.046875 132.28125 358.769531 132.867188 C 357.496094 133.457031 356.417969 134.535156 356.417969 135.417969 C 356.417969 136.695312 359.164062 136.890625 376.519531 136.890625 C 393.582031 136.890625 396.621094 136.695312 396.621094 135.417969 C 396.621094 134.632812 395.347656 133.355469 393.679688 132.472656 C 392.113281 131.6875 390.542969 130.019531 390.25 128.746094 C 389.957031 127.566406 389.855469 111.175781 389.957031 92.328125 L 390.25 58.074219 L 411.824219 96.941406 C 423.6875 118.339844 433.691406 135.910156 433.984375 135.910156 C 434.375 135.910156 444.378906 119.222656 456.242188 98.808594 C 468.207031 78.488281 478.601562 60.921875 479.386719 59.839844 C 480.757812 58.074219 480.855469 61.3125 480.953125 92.429688 C 480.953125 128.941406 480.757812 130.90625 476.445312 132.867188 C 475.171875 133.457031 474.089844 134.535156 474.089844 135.417969 C 474.089844 136.695312 476.933594 136.890625 495.074219 136.890625 C 510.277344 136.890625 516.355469 136.597656 516.84375 135.714844 C 517.238281 135.027344 516.84375 134.140625 515.765625 133.554688 C 514.785156 132.964844 513.117188 131.6875 512.136719 130.707031 C 510.46875 129.136719 510.371094 126.390625 510.570312 75.347656 L 510.863281 21.5625 L 514 19.597656 C 520.570312 15.476562 518.90625 15.179688 492.230469 15.179688 C 471.539062 15.179688 467.226562 15.375 467.226562 16.554688 C 467.226562 17.242188 468.304688 18.617188 469.679688 19.496094 C 474.386719 22.640625 474.089844 23.328125 452.910156 60.921875 L 436.535156 89.875 L 434.179688 85.65625 C 416.921875 55.328125 403.191406 29.3125 402.800781 26.074219 C 402.308594 22.738281 402.601562 21.855469 404.859375 19.792969 C 406.234375 18.519531 407.410156 16.945312 407.410156 16.257812 C 407.410156 15.476562 400.25 15.179688 381.910156 15.179688 C 359.75 15.179688 356.417969 15.375 356.417969 16.652344 Z M 356.417969 16.652344 "/>
<path style=" stroke:none;fill-rule:nonzero;fill:rgb(41.960785%,44.705883%,50.196081%);fill-opacity:1;" d="M 261.296875 37.855469 C 261.296875 38.441406 262.472656 39.816406 263.847656 40.992188 C 265.90625 42.566406 266.296875 43.546875 265.90625 46 C 265.613281 47.671875 256.394531 67.496094 245.3125 89.976562 C 227.074219 127.078125 224.820312 131.199219 221.683594 133.0625 C 219.71875 134.140625 218.445312 135.515625 218.738281 136.007812 C 219.035156 136.5 227.367188 136.890625 237.371094 136.890625 C 256.492188 136.890625 258.648438 136.300781 252.472656 132.769531 C 248.648438 130.609375 248.746094 128.453125 253.160156 119.027344 L 256.691406 111.371094 L 279.734375 111.566406 L 302.875 111.863281 L 306.601562 118.730469 C 308.660156 122.464844 310.328125 126.785156 310.328125 128.15625 C 310.328125 130.804688 307.683594 133.949219 305.523438 133.949219 C 304.835938 133.949219 304.445312 134.535156 304.640625 135.125 C 305.328125 136.992188 345.628906 137.480469 345.628906 135.617188 C 345.628906 134.929688 344.355469 133.847656 342.789062 133.355469 C 339.550781 132.082031 337.097656 128.058594 321.800781 99.101562 C 292.1875 42.761719 292.972656 44.628906 298.167969 40.210938 C 299.445312 39.03125 300.523438 37.855469 300.523438 37.460938 C 300.523438 37.066406 291.695312 36.773438 280.910156 36.773438 C 267.28125 36.773438 261.296875 37.066406 261.296875 37.855469 Z M 294.636719 96.847656 C 294.636719 97.238281 287.773438 97.632812 279.339844 97.632812 L 264.140625 97.632812 L 264.828125 95.371094 C 265.222656 94.195312 268.554688 87.03125 272.277344 79.570312 L 279.144531 65.925781 L 286.890625 80.945312 C 291.109375 89.1875 294.636719 96.355469 294.636719 96.847656 Z M 294.636719 96.847656 "/>
<path style=" stroke:none;fill-rule:nonzero;fill:rgb(41.960785%,44.705883%,50.196081%);fill-opacity:1;" d="M 536.851562 37.460938 C 536.851562 37.855469 538.027344 39.128906 539.59375 40.308594 L 542.242188 42.46875 L 542.535156 84.082031 C 542.734375 106.855469 542.535156 127.078125 542.242188 128.84375 C 541.851562 131.003906 540.867188 132.472656 539.203125 133.164062 C 537.925781 133.75 536.851562 134.832031 536.851562 135.617188 C 536.851562 136.597656 540.378906 136.890625 554.5 136.890625 C 569.503906 136.890625 572.148438 136.695312 572.148438 135.417969 C 572.148438 134.632812 571.757812 133.949219 571.171875 133.949219 C 570.679688 133.949219 569.308594 133.0625 568.226562 131.984375 C 566.367188 130.121094 566.265625 128.746094 566.265625 86.734375 L 566.265625 43.449219 L 569.207031 40.699219 C 570.875 39.226562 572.148438 37.65625 572.148438 37.363281 C 572.148438 37.066406 564.207031 36.773438 554.5 36.773438 C 544.792969 36.773438 536.851562 37.066406 536.851562 37.460938 Z M 536.851562 37.460938 "/>
<path style=" stroke:none;fill-rule:nonzero;fill:rgb(41.960785%,44.705883%,50.196081%);fill-opacity:1;" d="M 122.050781 55.03125 C 122.050781 55.328125 123.132812 56.503906 124.5 57.582031 L 126.957031 59.449219 L 126.957031 131.984375 L 124.5 133.554688 C 123.132812 134.4375 122.050781 135.515625 122.050781 136.007812 C 122.050781 136.5 128.722656 136.890625 136.761719 136.890625 C 144.902344 136.890625 151.46875 136.597656 151.46875 136.300781 C 151.46875 135.910156 150.390625 134.632812 149.015625 133.355469 C 146.566406 131.101562 146.46875 130.90625 146.761719 117.0625 L 147.058594 103.027344 L 166.472656 103.027344 L 175.691406 116.179688 C 180.691406 123.445312 184.8125 130.21875 184.8125 131.101562 C 184.8125 132.082031 183.929688 133.355469 182.847656 133.949219 C 178.632812 136.207031 182.457031 136.890625 199.125 136.890625 C 215.894531 136.890625 219.523438 136.105469 213.738281 133.949219 C 212.363281 133.457031 210.109375 131.789062 208.738281 130.3125 C 205.890625 127.273438 189.8125 104.992188 189.125 103.128906 C 188.832031 102.34375 190.203125 101.457031 192.851562 100.675781 C 205.109375 97.039062 210.40625 90.367188 210.597656 78.585938 C 210.796875 65.726562 204.421875 57.78125 191.769531 55.421875 C 186.183594 54.34375 122.050781 54.050781 122.050781 55.03125 Z M 184.023438 70.148438 C 188.539062 71.421875 190.695312 74.367188 190.695312 78.980469 C 190.695312 81.53125 190.007812 83.203125 188.144531 84.964844 C 185.695312 87.226562 185.203125 87.324219 166.078125 87.617188 L 146.566406 87.914062 L 146.566406 69.164062 L 163.53125 69.164062 C 172.75 69.164062 182.066406 69.65625 184.023438 70.148438 Z M 184.023438 70.148438 "/>
<path style=" stroke:none;fill-rule:nonzero;fill:rgb(41.960785%,44.705883%,50.196081%);fill-opacity:1;" d="M 587.84375 55.03125 C 587.84375 55.328125 588.917969 56.503906 590.292969 57.582031 L 592.742188 59.449219 L 592.742188 131.984375 L 590.195312 133.554688 C 588.625 134.632812 588.035156 135.515625 588.625 136.105469 C 589.210938 136.695312 601.472656 136.890625 619.808594 136.695312 C 648.34375 136.300781 650.5 136.207031 656.480469 134.046875 C 667.074219 130.3125 673.058594 124.917969 677.859375 114.609375 C 680.3125 109.308594 680.507812 108.035156 680.507812 95.664062 C 680.507812 82.90625 680.410156 82.21875 677.46875 76.035156 C 675.800781 72.503906 672.957031 67.886719 671.292969 65.925781 C 667.269531 61.410156 657.757812 56.699219 650.109375 55.421875 C 643.832031 54.34375 587.84375 54.050781 587.84375 55.03125 Z M 647.65625 71.421875 C 655.503906 74.859375 660.308594 82.613281 661.1875 93.210938 C 661.777344 101.261719 659.425781 109.308594 654.914062 114.316406 C 649.617188 120.105469 644.226562 121.582031 627.066406 121.582031 L 612.84375 121.679688 L 612.550781 95.273438 L 612.355469 68.96875 L 628.242188 69.363281 C 639.714844 69.753906 645.207031 70.246094 647.65625 71.421875 Z M 647.65625 71.421875 "/>
<path style=" stroke:none;fill-rule:nonzero;fill:rgb(41.960785%,44.705883%,50.196081%);fill-opacity:1;" d="M 47.523438 77.019531 C 47.523438 77.507812 48.210938 78 48.996094 78 C 50.664062 78 56.746094 85.265625 66.941406 99.398438 L 74.097656 109.308594 L 74.296875 121.1875 C 74.492188 131.589844 74.296875 133.257812 72.824219 134.339844 C 71.84375 135.027344 71.058594 135.910156 71.058594 136.300781 C 71.058594 137.089844 91.160156 137.089844 91.851562 136.300781 C 92.242188 136.007812 91.652344 134.929688 90.574219 133.847656 C 89.003906 132.28125 88.710938 130.511719 88.710938 121.382812 L 88.710938 110.683594 L 98.617188 96.847656 C 104.007812 89.1875 110.285156 81.335938 112.539062 79.46875 L 116.558594 76.035156 L 103.617188 76.035156 C 95.675781 76.035156 90.671875 76.425781 90.671875 77.019531 C 90.671875 77.507812 91.160156 78 91.652344 78 C 94.496094 78 93.515625 81.628906 88.613281 88.894531 C 85.671875 93.113281 83.023438 96.648438 82.628906 96.648438 C 81.746094 96.648438 73.316406 85.359375 71.746094 82.121094 C 70.863281 80.0625 70.960938 79.570312 73.023438 77.902344 C 75.472656 76.132812 75.375 76.035156 61.546875 76.035156 C 52.820312 76.035156 47.523438 76.425781 47.523438 77.019531 Z M 47.523438 77.019531 "/>
<path style=" stroke:none;fill-rule:nonzero;fill:rgb(41.960785%,44.705883%,50.196081%);fill-opacity:1;" d="M 693.550781 78 C 695.707031 79.960938 695.707031 80.550781 695.707031 106.464844 C 695.707031 131.6875 695.609375 132.867188 693.746094 134.242188 C 692.667969 135.027344 692.078125 135.910156 692.46875 136.207031 C 692.765625 136.597656 705.121094 136.890625 719.929688 136.890625 C 742.875 136.890625 746.796875 137.089844 747.285156 138.363281 C 748.757812 141.996094 749.640625 139.152344 749.640625 130.804688 L 749.640625 121.875 L 747.582031 123.738281 C 745.71875 125.410156 743.855469 125.601562 728.164062 125.601562 L 710.90625 125.601562 L 710.613281 102.242188 C 710.417969 82.121094 710.613281 78.882812 711.886719 78.394531 C 715.8125 76.820312 712.378906 76.035156 702.375 76.035156 L 691.394531 76.035156 Z M 693.550781 78 "/>
<path style=" stroke:none;fill-rule:nonzero;fill:rgb(41.960785%,44.705883%,50.196081%);fill-opacity:1;" d="M 795.238281 92.722656 C 794.847656 93.3125 786.804688 93.703125 774.351562 93.703125 C 758.664062 93.703125 754.449219 93.996094 755.332031 94.882812 C 756.800781 96.355469 756.996094 134.929688 755.523438 134.929688 C 755.035156 134.929688 754.542969 135.324219 754.542969 135.910156 C 754.542969 136.5 761.996094 136.890625 775.039062 136.890625 C 787.6875 136.890625 795.828125 137.285156 796.21875 137.875 C 797.691406 140.328125 798.671875 138.363281 798.671875 132.964844 C 798.671875 127.566406 797.691406 125.601562 796.21875 128.058594 C 795.828125 128.644531 789.847656 129.039062 781.414062 129.039062 L 767.292969 129.039062 L 767.292969 118.242188 L 775.921875 118.242188 C 781.316406 118.242188 784.941406 118.636719 785.730469 119.421875 C 786.613281 120.304688 786.90625 119.222656 786.90625 114.316406 C 786.90625 108.425781 786.804688 108.230469 785.140625 109.703125 C 783.863281 110.882812 781.511719 111.371094 776.902344 111.371094 C 767.878906 111.371094 767.292969 110.980469 767.292969 105.875 L 767.292969 101.558594 L 780.824219 101.558594 C 790.042969 101.558594 794.75 101.949219 795.535156 102.734375 C 796.417969 103.617188 796.710938 102.535156 796.710938 97.824219 C 796.710938 91.835938 796.417969 90.859375 795.238281 92.722656 Z M 795.238281 92.722656 "/>
<path style=" stroke:none;fill-rule:nonzero;fill:rgb(41.960785%,44.705883%,50.196081%);fill-opacity:1;" d="M 2.222656 94.882812 C 3.691406 96.355469 3.886719 134.929688 2.417969 134.929688 C 1.929688 134.929688 1.4375 135.324219 1.4375 135.910156 C 1.4375 136.5 4.574219 136.890625 8.792969 136.890625 C 13.007812 136.890625 16.144531 136.5 16.144531 135.910156 C 16.144531 135.324219 15.753906 134.929688 15.167969 134.929688 C 14.578125 134.929688 14.183594 131.6875 14.183594 127.175781 L 14.183594 119.421875 L 25.753906 119.027344 C 42.035156 118.4375 46.542969 115.691406 46.542969 106.363281 C 46.542969 100.675781 43.210938 96.15625 37.917969 94.6875 C 32.519531 93.210938 0.75 93.410156 2.222656 94.882812 Z M 35.167969 103.714844 C 37.128906 106.5625 37.128906 107.054688 34.777344 109.40625 C 33.109375 111.074219 31.539062 111.371094 23.5 111.371094 L 14.183594 111.371094 L 14.183594 101.558594 L 23.890625 101.558594 C 32.914062 101.558594 33.796875 101.753906 35.167969 103.714844 Z M 35.167969 103.714844 "/>
</g>
</svg>