<?xml version="1.0" encoding="UTF-8"?>
<svg xmlns="http://www.w3.org/2000/svg" xmlns:xlink="http://www.w3.org/1999/xlink" width="1000px" height="187px" viewBox="0 0 1001 187" version="1.1">
<g id="surface1">
<path style=" stroke:none;fill-rule:nonzero;fill:rgb(41.960785%,44.705883%,50.196081%);fill-opacity:1;" d="M 444.855469 20.6875 C 444.855469 21.789062 446.199219 23.136719 447.792969 23.75 C 449.503906 24.363281 451.464844 25.953125 452.074219 27.300781 C 454.035156 30.730469 453.910156 157.261719 452.074219 161.304688 C 451.339844 163.019531 449.382812 164.980469 447.792969 165.714844 C 446.199219 166.449219 444.855469 167.796875 444.855469 168.898438 C 444.855469 170.492188 448.28125 170.734375 469.945312 170.734375 C 491.242188 170.734375 495.035156 170.492188 495.035156 168.898438 C 495.035156 167.917969 493.445312 166.324219 491.363281 165.222656 C 489.40625 164.242188 487.449219 162.160156 487.082031 160.570312 C 486.714844 159.097656 486.589844 138.644531 486.714844 115.125 L 487.082031 72.378906 L 514.007812 120.882812 C 528.816406 147.585938 541.300781 169.511719 541.667969 169.511719 C 542.15625 169.511719 554.640625 148.6875 569.449219 123.210938 C 584.382812 97.855469 597.355469 75.929688 598.335938 74.582031 C 600.046875 72.378906 600.171875 76.417969 600.292969 115.25 C 600.292969 160.8125 600.046875 163.265625 594.664062 165.714844 C 593.074219 166.449219 591.726562 167.796875 591.726562 168.898438 C 591.726562 170.492188 595.277344 170.734375 617.917969 170.734375 C 636.890625 170.734375 644.476562 170.367188 645.089844 169.265625 C 645.578125 168.410156 645.089844 167.304688 643.742188 166.570312 C 642.519531 165.835938 640.4375 164.242188 639.214844 163.019531 C 637.132812 161.058594 637.011719 157.628906 637.257812 93.933594 L 637.625 26.8125 L 641.539062 24.363281 C 649.738281 19.21875 647.660156 18.851562 614.367188 18.851562 C 588.542969 18.851562 583.160156 19.09375 583.160156 20.566406 C 583.160156 21.421875 584.503906 23.136719 586.21875 24.238281 C 592.09375 28.160156 591.726562 29.015625 565.289062 75.929688 L 544.851562 112.0625 L 541.914062 106.796875 C 520.371094 68.949219 503.234375 36.488281 502.746094 32.445312 C 502.132812 28.28125 502.5 27.179688 505.316406 24.605469 C 507.03125 23.015625 508.5 21.054688 508.5 20.195312 C 508.5 19.21875 499.5625 18.851562 476.675781 18.851562 C 449.015625 18.851562 444.855469 19.09375 444.855469 20.6875 Z M 444.855469 20.6875 "/>
<path style=" stroke:none;fill-rule:nonzero;fill:rgb(41.960785%,44.705883%,50.196081%);fill-opacity:1;" d="M 326.132812 47.144531 C 326.132812 47.878906 327.601562 49.59375 329.316406 51.0625 C 331.886719 53.023438 332.375 54.25 331.886719 57.3125 C 331.519531 59.394531 320.015625 84.136719 306.183594 112.1875 C 283.417969 158.488281 280.605469 163.632812 276.6875 165.957031 C 274.238281 167.304688 272.648438 169.019531 273.015625 169.632812 C 273.382812 170.246094 283.785156 170.734375 296.269531 170.734375 C 320.136719 170.734375 322.828125 170 315.117188 165.589844 C 310.34375 162.894531 310.46875 160.203125 315.976562 148.441406 L 320.382812 138.886719 L 349.144531 139.132812 L 378.027344 139.5 L 382.679688 148.074219 C 385.25 152.730469 387.332031 158.121094 387.332031 159.835938 C 387.332031 163.140625 384.027344 167.0625 381.332031 167.0625 C 380.476562 167.0625 379.988281 167.796875 380.230469 168.53125 C 381.089844 170.859375 431.390625 171.46875 431.390625 169.144531 C 431.390625 168.285156 429.800781 166.9375 427.84375 166.324219 C 423.804688 164.734375 420.742188 159.710938 401.648438 123.578125 C 364.6875 53.269531 365.667969 55.597656 372.152344 50.085938 C 373.746094 48.613281 375.089844 47.144531 375.089844 46.65625 C 375.089844 46.164062 364.074219 45.796875 350.613281 45.796875 C 333.601562 45.796875 326.132812 46.164062 326.132812 47.144531 Z M 367.746094 120.761719 C 367.746094 121.25 359.179688 121.742188 348.652344 121.742188 L 329.683594 121.742188 L 330.539062 118.921875 C 331.03125 117.453125 335.191406 108.511719 339.839844 99.203125 L 348.410156 82.175781 L 358.078125 100.917969 C 363.339844 111.207031 367.746094 120.148438 367.746094 120.761719 Z M 367.746094 120.761719 "/>
<path style=" stroke:none;fill-rule:nonzero;fill:rgb(41.960785%,44.705883%,50.196081%);fill-opacity:1;" d="M 670.058594 46.65625 C 670.058594 47.144531 671.527344 48.738281 673.484375 50.207031 L 676.789062 52.902344 L 677.15625 104.835938 C 677.402344 133.253906 677.15625 158.488281 676.789062 160.691406 C 676.300781 163.386719 675.074219 165.222656 672.996094 166.082031 C 671.402344 166.816406 670.058594 168.164062 670.058594 169.144531 C 670.058594 170.367188 674.464844 170.734375 692.089844 170.734375 C 710.8125 170.734375 714.117188 170.492188 714.117188 168.898438 C 714.117188 167.917969 713.628906 167.0625 712.894531 167.0625 C 712.28125 167.0625 710.570312 165.957031 709.222656 164.609375 C 706.898438 162.285156 706.773438 160.570312 706.773438 108.144531 L 706.773438 54.125 L 710.445312 50.695312 C 712.527344 48.859375 714.117188 46.898438 714.117188 46.53125 C 714.117188 46.164062 704.203125 45.796875 692.089844 45.796875 C 679.972656 45.796875 670.058594 46.164062 670.058594 46.65625 Z M 670.058594 46.65625 "/>
<path style=" stroke:none;fill-rule:nonzero;fill:rgb(41.960785%,44.705883%,50.196081%);fill-opacity:1;" d="M 152.335938 68.582031 C 152.335938 68.949219 153.683594 70.417969 155.394531 71.765625 L 158.457031 74.09375 L 158.457031 164.609375 L 155.394531 166.570312 C 153.683594 167.671875 152.335938 169.019531 152.335938 169.632812 C 152.335938 170.246094 160.660156 170.734375 170.695312 170.734375 C 180.855469 170.734375 189.054688 170.367188 189.054688 170 C 189.054688 169.511719 187.707031 167.917969 185.992188 166.324219 C 182.933594 163.507812 182.8125 163.265625 183.179688 145.992188 L 183.546875 128.476562 L 207.78125 128.476562 L 219.285156 144.890625 C 225.527344 153.953125 230.667969 162.40625 230.667969 163.507812 C 230.667969 164.734375 229.566406 166.324219 228.21875 167.0625 C 222.957031 169.878906 227.730469 170.734375 248.535156 170.734375 C 269.464844 170.734375 273.996094 169.753906 266.773438 167.0625 C 265.058594 166.449219 262.246094 164.367188 260.53125 162.527344 C 256.980469 158.730469 236.910156 130.925781 236.054688 128.601562 C 235.6875 127.621094 237.398438 126.515625 240.703125 125.539062 C 256.003906 121.003906 262.613281 112.675781 262.855469 97.976562 C 263.101562 81.929688 255.144531 72.011719 239.355469 69.070312 C 232.382812 67.722656 152.335938 67.355469 152.335938 68.582031 Z M 229.6875 87.445312 C 235.320312 89.035156 238.011719 92.710938 238.011719 98.46875 C 238.011719 101.652344 237.152344 103.734375 234.828125 105.9375 C 231.769531 108.757812 231.15625 108.878906 207.289062 109.246094 L 182.933594 109.613281 L 182.933594 86.21875 L 204.109375 86.21875 C 215.613281 86.21875 227.242188 86.832031 229.6875 87.445312 Z M 229.6875 87.445312 "/>
<path style=" stroke:none;fill-rule:nonzero;fill:rgb(41.960785%,44.705883%,50.196081%);fill-opacity:1;" d="M 733.703125 68.582031 C 733.703125 68.949219 735.046875 70.417969 736.761719 71.765625 L 739.820312 74.09375 L 739.820312 164.609375 L 736.640625 166.570312 C 734.679688 167.917969 733.945312 169.019531 734.679688 169.753906 C 735.414062 170.492188 750.714844 170.734375 773.601562 170.492188 C 809.21875 170 811.910156 169.878906 819.375 167.183594 C 832.59375 162.527344 840.0625 155.792969 846.058594 142.929688 C 849.117188 136.316406 849.363281 134.722656 849.363281 119.289062 C 849.363281 103.367188 849.242188 102.507812 845.570312 94.792969 C 843.488281 90.382812 839.9375 84.625 837.859375 82.175781 C 832.839844 76.542969 820.96875 70.664062 811.421875 69.070312 C 803.585938 67.722656 733.703125 67.355469 733.703125 68.582031 Z M 808.359375 89.035156 C 818.152344 93.324219 824.148438 103 825.25 116.226562 C 825.984375 126.273438 823.046875 136.316406 817.417969 142.5625 C 810.808594 149.789062 804.078125 151.628906 782.660156 151.628906 L 764.910156 151.75 L 764.542969 118.800781 L 764.300781 85.972656 L 784.128906 86.464844 C 798.449219 86.953125 805.300781 87.566406 808.359375 89.035156 Z M 808.359375 89.035156 "/>
<path style=" stroke:none;fill-rule:nonzero;fill:rgb(41.960785%,44.705883%,50.196081%);fill-opacity:1;" d="M 59.316406 96.019531 C 59.316406 96.628906 60.175781 97.242188 61.152344 97.242188 C 63.234375 97.242188 70.824219 106.308594 83.550781 123.945312 L 92.484375 136.316406 L 92.730469 151.136719 C 92.976562 164.121094 92.730469 166.203125 90.894531 167.550781 C 89.671875 168.410156 88.691406 169.511719 88.691406 170 C 88.691406 170.980469 113.78125 170.980469 114.640625 170 C 115.128906 169.632812 114.394531 168.285156 113.046875 166.9375 C 111.089844 164.980469 110.722656 162.773438 110.722656 151.382812 L 110.722656 138.03125 L 123.085938 120.761719 C 129.816406 111.207031 137.648438 101.40625 140.464844 99.078125 L 145.480469 94.792969 L 129.328125 94.792969 C 119.414062 94.792969 113.171875 95.28125 113.171875 96.019531 C 113.171875 96.628906 113.78125 97.242188 114.394531 97.242188 C 117.945312 97.242188 116.71875 101.773438 110.601562 110.839844 C 106.929688 116.105469 103.625 120.515625 103.132812 120.515625 C 102.03125 120.515625 91.507812 106.429688 89.546875 102.386719 C 88.445312 99.816406 88.570312 99.203125 91.140625 97.121094 C 94.199219 94.914062 94.078125 94.792969 76.820312 94.792969 C 65.925781 94.792969 59.316406 95.28125 59.316406 96.019531 Z M 59.316406 96.019531 "/>
<path style=" stroke:none;fill-rule:nonzero;fill:rgb(41.960785%,44.705883%,50.196081%);fill-opacity:1;" d="M 865.640625 97.242188 C 868.332031 99.691406 868.332031 100.425781 868.332031 132.765625 C 868.332031 164.242188 868.210938 165.714844 865.886719 167.429688 C 864.539062 168.410156 863.804688 169.511719 864.292969 169.878906 C 864.660156 170.367188 880.082031 170.734375 898.566406 170.734375 C 927.203125 170.734375 932.101562 170.980469 932.710938 172.574219 C 934.546875 177.105469 935.648438 173.554688 935.648438 163.140625 L 935.648438 151.996094 L 933.078125 154.320312 C 930.753906 156.40625 928.429688 156.648438 908.84375 156.648438 L 887.304688 156.648438 L 886.9375 127.496094 C 886.691406 102.386719 886.9375 98.34375 888.527344 97.734375 C 893.425781 95.773438 889.140625 94.792969 876.65625 94.792969 L 862.949219 94.792969 Z M 865.640625 97.242188 "/>
<path style=" stroke:none;fill-rule:nonzero;fill:rgb(41.960785%,44.705883%,50.196081%);fill-opacity:1;" d="M 992.5625 115.617188 C 992.074219 116.351562 982.035156 116.839844 966.492188 116.839844 C 946.910156 116.839844 941.648438 117.207031 942.75 118.3125 C 944.585938 120.148438 944.828125 168.285156 942.992188 168.285156 C 942.382812 168.285156 941.769531 168.777344 941.769531 169.511719 C 941.769531 170.246094 951.070312 170.734375 967.347656 170.734375 C 983.136719 170.734375 993.296875 171.226562 993.785156 171.960938 C 995.621094 175.023438 996.847656 172.574219 996.847656 165.835938 C 996.847656 159.097656 995.621094 156.648438 993.785156 159.710938 C 993.296875 160.445312 985.832031 160.9375 975.304688 160.9375 L 957.679688 160.9375 L 957.679688 147.460938 L 968.449219 147.460938 C 975.183594 147.460938 979.710938 147.953125 980.691406 148.933594 C 981.792969 150.035156 982.160156 148.6875 982.160156 142.5625 C 982.160156 135.214844 982.035156 134.96875 979.957031 136.804688 C 978.363281 138.277344 975.425781 138.886719 969.675781 138.886719 C 958.414062 138.886719 957.679688 138.398438 957.679688 132.03125 L 957.679688 126.640625 L 974.570312 126.640625 C 986.074219 126.640625 991.949219 127.128906 992.929688 128.109375 C 994.03125 129.210938 994.398438 127.863281 994.398438 121.984375 C 994.398438 114.511719 994.03125 113.289062 992.5625 115.617188 Z M 992.5625 115.617188 "/>
<path style=" stroke:none;fill-rule:nonzero;fill:rgb(41.960785%,44.705883%,50.196081%);fill-opacity:1;" d="M 2.773438 118.3125 C 4.609375 120.148438 4.851562 168.285156 3.015625 168.285156 C 2.40625 168.285156 1.792969 168.777344 1.792969 169.511719 C 1.792969 170.246094 5.710938 170.734375 10.972656 170.734375 C 16.234375 170.734375 20.152344 170.246094 20.152344 169.511719 C 20.152344 168.777344 19.664062 168.285156 18.929688 168.285156 C 18.195312 168.285156 17.703125 164.242188 17.703125 158.609375 L 17.703125 148.933594 L 32.144531 148.441406 C 52.464844 147.707031 58.09375 144.277344 58.09375 132.640625 C 58.09375 125.539062 53.933594 119.902344 47.324219 118.066406 C 40.589844 116.226562 0.9375 116.472656 2.773438 118.3125 Z M 43.894531 129.335938 C 46.34375 132.886719 46.34375 133.5 43.40625 136.4375 C 41.324219 138.519531 39.367188 138.886719 29.332031 138.886719 L 17.703125 138.886719 L 17.703125 126.640625 L 29.820312 126.640625 C 41.082031 126.640625 42.183594 126.886719 43.894531 129.335938 Z M 43.894531 129.335938 "/>
</g>
</svg>
